<svg width="502" height="502" viewBox="0 0 502 502" fill="none" xmlns="http://www.w3.org/2000/svg">
<path d="M267.667 1V501" stroke="#7000FF" stroke-width="2"/>
<path d="M301 1V501" stroke="#7000FF" stroke-width="2"/>
<path d="M334.333 1V501" stroke="#7000FF" stroke-width="2"/>
<path d="M367.667 1V501" stroke="#7000FF" stroke-width="2"/>
<path d="M401 1V501" stroke="#7000FF" stroke-width="2"/>
<path d="M434.333 1V501" stroke="#7000FF" stroke-width="2"/>
<path d="M467.667 1V501" stroke="#7000FF" stroke-width="2"/>
<path d="M501 1V501" stroke="#7000FF" stroke-width="2"/>
<path d="M1 1V501" stroke="#7000FF" stroke-width="2"/>
<path d="M34.3333 1V501" stroke="#7000FF" stroke-width="2"/>
<path d="M67.6667 1V501" stroke="#7000FF" stroke-width="2"/>
<path d="M101 1V501" stroke="#7000FF" stroke-width="2"/>
<path d="M134.333 1V501" stroke="#7000FF" stroke-width="2"/>
<path d="M167.667 1V501" stroke="#7000FF" stroke-width="2"/>
<path d="M201 1V501" stroke="#7000FF" stroke-width="2"/>
<path d="M234.333 1V501" stroke="#7000FF" stroke-width="2"/>
<path d="M1 234.333L501 234.333" stroke="#7000FF" stroke-width="2"/>
<path d="M1 201L501 201" stroke="#7000FF" stroke-width="2"/>
<path d="M1 167.667L501 167.667" stroke="#7000FF" stroke-width="2"/>
<path d="M1 134.333L501 134.333" stroke="#7000FF" stroke-width="2"/>
<path d="M1 101L501 101" stroke="#7000FF" stroke-width="2"/>
<path d="M1 67.6667L501 67.6667" stroke="#7000FF" stroke-width="2"/>
<path d="M1 34.3333L501 34.3333" stroke="#7000FF" stroke-width="2"/>
<path d="M1 1L501 1" stroke="#7000FF" stroke-width="2"/>
<path d="M1 501L501 501" stroke="#7000FF" stroke-width="2"/>
<path d="M1 467.667L501 467.667" stroke="#7000FF" stroke-width="2"/>
<path d="M1 434.333L501 434.333" stroke="#7000FF" stroke-width="2"/>
<path d="M1 401L501 401" stroke="#7000FF" stroke-width="2"/>
<path d="M1 367.667L501 367.667" stroke="#7000FF" stroke-width="2"/>
<path d="M1 334.333L501 334.333" stroke="#7000FF" stroke-width="2"/>
<path d="M1 301L501 301" stroke="#7000FF" stroke-width="2"/>
<path d="M1 267.667L501 267.667" stroke="#7000FF" stroke-width="2"/>
</svg>
